<?xml version="1.0" encoding="UTF-8" standalone="no"?>
<!-- Created with Inkscape (http://www.inkscape.org/) -->

<svg
   xmlns:dc="http://purl.org/dc/elements/1.1/"
   xmlns:cc="http://creativecommons.org/ns#"
   xmlns:rdf="http://www.w3.org/1999/02/22-rdf-syntax-ns#"
   xmlns:svg="http://www.w3.org/2000/svg"
   xmlns="http://www.w3.org/2000/svg"
   xmlns:sodipodi="http://sodipodi.sourceforge.net/DTD/sodipodi-0.dtd"
   xmlns:inkscape="http://www.inkscape.org/namespaces/inkscape"
   width="210mm"
   height="297mm"
   id="svg2"
   version="1.1"
   inkscape:version="0.92.1 r"
   sodipodi:docname="ying-yang-2.svg">
  <defs
     id="defs4" />
  <sodipodi:namedview
     id="base"
     pagecolor="#ffffff"
     bordercolor="#666666"
     borderopacity="1.0"
     inkscape:pageopacity="0.0"
     inkscape:pageshadow="2"
     inkscape:zoom="0.65445339"
     inkscape:cx="111.41971"
     inkscape:cy="595.51409"
     inkscape:document-units="px"
     inkscape:current-layer="layer1"
     showgrid="false"
     inkscape:window-width="1920"
     inkscape:window-height="1103"
     inkscape:window-x="0"
     inkscape:window-y="27"
     inkscape:window-maximized="1" />
  <metadata
     id="metadata7">
    <rdf:RDF>
      <cc:Work
         rdf:about="">
        <dc:format>image/svg+xml</dc:format>
        <dc:type
           rdf:resource="http://purl.org/dc/dcmitype/StillImage" />
        <dc:title />
      </cc:Work>
    </rdf:RDF>
  </metadata>
  <g
     inkscape:label="Capa 1"
     inkscape:groupmode="layer"
     id="layer1">
    <g
       id="g4805"
       transform="matrix(0.9031554,0,0,0.9031554,28.749936,-0.13557743)">
      <path
         inkscape:connector-curvature="0"
         id="path3759"
         d="m 396.86667,198.6 c -100.14767,0 -181.33334,81.18571 -181.33334,181.33333 0,100.14764 81.18567,181.33334 181.33334,181.33334 100.14763,0 181.33333,81.1857 181.33333,181.33333 0,100.14764 -81.1857,181.33333 -181.33333,181.33333 200.29526,0 362.66666,-162.3714 362.66666,-362.66666 C 759.53333,360.97139 597.16193,198.6 396.86667,198.6 Z"
         style="color:#000000;display:inline;overflow:visible;visibility:visible;fill:#000000;fill-opacity:1;fill-rule:nonzero;stroke:none;stroke-width:2.39083958;marker:none;enable-background:accumulate" />
      <circle
         r="48"
         cy="379.92648"
         cx="396.8504"
         id="path3786"
         style="color:#000000;display:inline;overflow:visible;visibility:visible;fill:#ffffff;fill-opacity:1;fill-rule:nonzero;stroke:none;stroke-width:1.71162379;marker:none;enable-background:accumulate" />
      <circle
         r="48"
         cy="742.59314"
         cx="396.8504"
         style="color:#000000;display:inline;overflow:visible;visibility:visible;fill:#000000;fill-opacity:1;fill-rule:nonzero;stroke:none;stroke-width:1.71162379;marker:none;enable-background:accumulate"
         id="path3788" />
      <path
         inkscape:connector-curvature="0"
         id="path3795"
         d="m 391.53333,187.93333 c -209.13183,0 -378.666663,169.53484 -378.666663,378.66667 0,209.13183 169.534833,378.66667 378.666663,378.66667 C 600.66516,945.26667 770.2,775.73183 770.2,566.6 770.2,357.46817 600.66516,187.93333 391.53333,187.93333 Z m 0,21.03704 c 197.51339,0 357.62964,160.11623 357.62964,357.62963 0,197.51339 -160.11625,357.62963 -357.62964,357.62963 -197.51338,0 -357.629627,-160.11624 -357.629627,-357.62963 0,-197.5134 160.116247,-357.62963 357.629627,-357.62963 z"
         style="color:#000000;display:inline;overflow:visible;visibility:visible;fill:#000000;fill-opacity:1;fill-rule:nonzero;stroke:none;stroke-width:2.39083958;marker:none;enable-background:accumulate" />
    </g>
  </g>
</svg>
